<?xml version="1.0" encoding="utf-8"?>
<!-- Generator: Adobe Illustrator 24.3.0, SVG Export Plug-In . SVG Version: 6.00 Build 0)  -->
<svg version="1.1" xmlns="http://www.w3.org/2000/svg" xmlns:xlink="http://www.w3.org/1999/xlink" x="0px" y="0px"
	 viewBox="0 0 202 134" style="enable-background:new 0 0 202 134;" xml:space="preserve">
<style type="text/css">
	.st0{display:none;}
	.st1{display:inline;}
	.st2{opacity:0.9;clip-path:url(#SVGID_2_);}
	.st3{fill:#606063;}
	.st4{fill:url(#SVGID_3_);}
	.st5{fill:none;stroke:#606063;stroke-width:1.652;}
	.st6{fill:none;stroke:#979797;stroke-width:1.652;}
	.st7{fill:none;stroke:url(#SVGID_4_);stroke-width:2.449;}
	.st8{fill:#FFFFFF;filter:url(#Adobe_OpacityMaskFilter);}
	.st9{fill-rule:evenodd;clip-rule:evenodd;}
	.st10{mask:url(#A_1_);fill:url(#SVGID_5_);}
	.st11{fill:#FFFFFF;filter:url(#Adobe_OpacityMaskFilter_1_);}
	.st12{mask:url(#B_1_);fill:#612F01;}
	.st13{fill:#FEDC90;}
	.st14{fill:#D1884F;}
	.st15{fill:#FFFFFF;filter:url(#Adobe_OpacityMaskFilter_2_);}
	.st16{mask:url(#C_1_);fill:#612F01;}
	.st17{opacity:0.5;fill:#AEA0D6;enable-background:new    ;}
	.st18{fill:#E5B065;}
	.st19{fill:#FCC395;}
	.st20{fill:#FCC395;stroke:#5E3601;stroke-width:0.5;stroke-miterlimit:10;}
	.st21{fill:#C7EAFB;stroke:#000000;stroke-width:0.5;stroke-miterlimit:10;}
	.st22{fill:#FCC395;stroke:#000000;stroke-width:0.5;stroke-miterlimit:10;}
	.st23{fill:none;stroke:#000000;stroke-width:0.5;stroke-miterlimit:10;}
	.st24{fill:none;stroke:#6F410C;stroke-width:0.5;stroke-miterlimit:10;}
	.st25{fill:#231F20;stroke:#502E05;stroke-width:0.25;stroke-miterlimit:10;}
	.st26{stroke:#73471C;stroke-miterlimit:10;}
	.st27{font-family:'EkkamaiNew-Regular';}
	.st28{font-size:8px;}
</style>
<g id="Layer_1" xmlns:v="https://vecta.io/nano" class="st0">
	<g class="st1">
		<defs>
			<rect id="SVGID_1_" y="0" width="202" height="133.7"/>
		</defs>
		<clipPath id="SVGID_2_">
			<use xlink:href="#SVGID_1_"  style="overflow:visible;"/>
		</clipPath>
		<g class="st2">
			<g>
				
					<ellipse transform="matrix(0.4956 -0.8686 0.8686 0.4956 -56.7551 114.1083)" class="st3" cx="69.9" cy="105.9" rx="16.8" ry="35.3"/>
				<path class="st3" d="M96.7,126.9l14.1-8.6L38.4,77l-0.1,16.6L96.7,126.9L96.7,126.9z"/>
				<path class="st3" d="M41.9,80.7L7.2,60.9c-0.8-0.5-1.8-0.2-2.3,0.6c0,0,0,0,0,0.1L3,65.4c-1,1.9-0.3,4.3,1.5,5.4l35.9,21.6
					L41.9,80.7L41.9,80.7z"/>
			</g>
			
				<linearGradient id="SVGID_3_" gradientUnits="userSpaceOnUse" x1="-541.6716" y1="277.5492" x2="-541.6716" y2="238.5972" gradientTransform="matrix(-0.8686 -0.4956 0.4956 -0.8686 -531.4266 66.7486)">
				<stop  offset="0" style="stop-color:#404042"/>
				<stop  offset="1" style="stop-color:#48484B"/>
			</linearGradient>
			<path class="st4" d="M86.2,77.2C65.8,65.5,44.9,63.7,39.6,73s6.9,26.4,27.3,38s41.3,13.5,46.6,4.2S106.7,88.9,86.2,77.2z"/>
			<g>
				<path class="st5" d="M101.6,120.4c1.2-8.3-8.4-20.5-23.4-29S47.8,80.8,41.3,86"/>
				<path class="st6" d="M40.3,73.4c-2.4,4.2-1,10.4,4,17.2c4.9,6.8,12.9,13.9,23.1,19.6s20.3,9.1,28.6,9.9
					c8.4,0.8,14.5-1.2,16.9-5.4s0.9-10.4-4-17.2C104,90.8,96,83.7,85.8,77.9s-20.3-9.1-28.6-9.9C48.8,67.3,42.7,69.2,40.3,73.4
					L40.3,73.4z"/>
			</g>
			
				<linearGradient id="SVGID_4_" gradientUnits="userSpaceOnUse" x1="40.0156" y1="55.054" x2="33.6946" y2="44.124" gradientTransform="matrix(1 0 0 -1 0 133.8898)">
				<stop  offset="0" style="stop-color:#404042"/>
				<stop  offset="1" style="stop-color:#48484B"/>
			</linearGradient>
			<path class="st7" d="M37,77.1l-0.3,14.4"/>
			<defs>
				<filter id="Adobe_OpacityMaskFilter" filterUnits="userSpaceOnUse" x="0.1" y="58.3" width="117.2" height="72.8">
					<feColorMatrix  type="matrix" values="1 0 0 0 0  0 1 0 0 0  0 0 1 0 0  0 0 0 1 0"/>
				</filter>
			</defs>
			<mask maskUnits="userSpaceOnUse" x="0.1" y="58.3" width="117.2" height="72.8" id="A_1_">
				<path class="st8" d="M-5,57.2h126v76.4H-5V57.2z"/>
				<path class="st9" d="M61.6,120.5C46.7,112,37.1,99.9,38.1,91.6c0-0.3-0.1-0.6-0.3-0.7l-33.3-20C2.7,69.7,2,67.4,3,65.4l1.9-3.8
					c0.4-0.8,1.4-1.1,2.2-0.7c0,0,0,0,0.1,0l30.9,17.6c0.1,0.1,0.3,0,0.3-0.2c0-0.3,0-0.6,0-1l0-0.4c0,0,0,0,0,0
					c0.1-1.4,0.5-2.8,1.2-4c5.3-9.3,26.2-7.5,46.6,4.2s32.7,28.7,27.3,38c-0.7,1.2-1.6,2.2-2.8,3.1c0,0,0,0,0,0l-0.5,0.3
					c0,0-0.1,0-0.1,0c0,0-0.1,0.1-0.1,0.1l-11.6,7.1C91.8,131,76.5,129,61.6,120.5L61.6,120.5z"/>
			</mask>
			
				<linearGradient id="SVGID_5_" gradientUnits="userSpaceOnUse" x1="60.5947" y1="68.8245" x2="55.6987" y2="7.7025" gradientTransform="matrix(1 0 0 -1 0 133.8898)">
				<stop  offset="0" style="stop-color:#404042"/>
				<stop  offset="1" style="stop-color:#48484B"/>
			</linearGradient>
			<path class="st10" d="M61.6,120.5l-1.2,2.1L61.6,120.5z M4.5,70.8l-1.3,2.1L4.5,70.8L4.5,70.8z M3,65.4l-2.2-1.1L3,65.4z
				 M4.9,61.6l2.2,1.1L4.9,61.6z M7.2,61l1.2-2.1L7.2,61L7.2,61z M38.4,77.4l2.4,0.1l0-0.1v-0.1L38.4,77.4L38.4,77.4z M39.6,73
				l-2.1-1.2L39.6,73L39.6,73z M86.2,77.2l1.2-2.1L86.2,77.2z M113.6,115.2l2.1,1.2L113.6,115.2z M110.2,118.6l-1.3-2.1l0,0l0,0
				L110.2,118.6L110.2,118.6z M110.1,118.7l-1.3-2.1L110.1,118.7z M110,118.8l-1.3-2.1l0,0C108.7,116.7,110,118.8,110,118.8z
				 M98.4,125.9l-1.3-2.1l-0.1,0.1l-0.1,0.1L98.4,125.9L98.4,125.9z M110.8,118.3l1.3,2.1L110.8,118.3z M110.8,118.3l1.4,2
				L110.8,118.3z M38.4,77l-2.5,0L38.4,77z M38.1,78.6l1.2-2.1L38.1,78.6z M38.4,77L36,76.8L38.4,77z M38.1,91.6l-2.4-0.3L38.1,91.6
				z M37.8,90.9l1.3-2.1L37.8,90.9z M35.7,91.3c-0.6,5.1,2,10.9,6.3,16.2c4.3,5.4,10.7,10.7,18.4,15.1l2.4-4.3
				c-7.2-4.1-13.1-9.1-17-13.9c-4-4.9-5.6-9.4-5.2-12.5L35.7,91.3L35.7,91.3z M3.3,72.9l33.3,20l2.5-4.2l-33.3-20L3.3,72.9z
				 M0.8,64.3c-1.6,3.1-0.5,6.8,2.5,8.6l2.5-4.2c-0.8-0.5-1-1.4-0.6-2.2L0.8,64.3L0.8,64.3z M2.7,60.5l-1.9,3.8l4.4,2.2l1.9-3.8
				L2.7,60.5z M8.4,58.8c-2-1.1-4.5-0.4-5.6,1.5c0,0.1-0.1,0.1-0.1,0.2l4.4,2.2c-0.2,0.4-0.7,0.6-1.1,0.3L8.4,58.8z M39.3,76.4
				L8.4,58.8L6,63.1l30.9,17.6L39.3,76.4L39.3,76.4z M35.9,77.3c0,0.4,0,0.8,0,1.2l4.9-0.2c0-0.3,0-0.5,0-0.8L35.9,77.3L35.9,77.3z
				 M35.9,77l0,0.4l4.9,0l0-0.4L35.9,77z M37.5,71.8c-0.9,1.5-1.4,3.2-1.5,5l4.9,0.4c0.1-1.1,0.4-2.1,0.9-3L37.5,71.8L37.5,71.8z
				 M87.5,75.1c-10.4-6-21.1-9.5-30-10.3c-8.6-0.8-16.6,1-20,7l4.3,2.4c1.9-3.3,7.1-5.3,15.3-4.6c8,0.7,18,4,28,9.7L87.5,75.1
				L87.5,75.1z M115.7,116.4c3.4-6,0.9-13.8-4.1-20.8c-5.2-7.2-13.7-14.6-24.1-20.6L85,79.3C95,85,102.9,92,107.6,98.5
				c4.8,6.7,5.8,12.2,3.9,15.5L115.7,116.4L115.7,116.4z M112.2,120.3c1.4-1,2.6-2.3,3.5-3.9l-4.3-2.4c-0.5,0.9-1.2,1.6-2.1,2.3
				L112.2,120.3L112.2,120.3z M111.5,120.7l0.5-0.3l-2.6-4.2l-0.5,0.3L111.5,120.7z M108.9,116.6L108.9,116.6l2.5,4.2l0.1-0.1
				L108.9,116.6z M111.3,120.9l0.2-0.1l-2.6-4.2l-0.1,0.1L111.3,120.9L111.3,120.9z M99.7,128l11.6-7.1l-2.6-4.2l-11.6,7.1L99.7,128
				L99.7,128z M60.3,122.6c7.7,4.4,15.5,7.1,22.4,8.1c6.8,1,13.1,0.3,17.1-2.9l-3-3.9c-2.5,1.9-7.1,2.8-13.4,1.9
				c-6.2-0.9-13.4-3.4-20.7-7.5L60.3,122.6L60.3,122.6z M109.5,120.4c-1.6-0.9-1.6-3.2-0.1-4.2l2.6,4.2c1.2-0.7,1.5-2.2,0.8-3.4
				c-0.2-0.3-0.5-0.6-0.9-0.8C112,116.2,109.5,120.4,109.5,120.4z M109.3,116.3c-1.1,0.8-1.4,2.3-0.6,3.4c0.2,0.3,0.5,0.5,0.8,0.7
				l2.4-4.3c1.6,0.9,1.6,3.1,0.2,4.1L109.3,116.3L109.3,116.3z M40.8,77c0,1.9-2,3-3.7,2.1l2.4-4.3c-1.2-0.7-2.7-0.3-3.4,0.9
				c-0.2,0.4-0.3,0.8-0.3,1.2C35.9,77,40.8,77,40.8,77z M36.9,80.7c1.3,0.7,2.9,0.3,3.6-1c0.2-0.4,0.3-0.8,0.3-1.3l-4.9,0
				c0-1.7,1.9-2.8,3.4-1.9L36.9,80.7z M37.2,79.1c1.2,0.7,2.7,0.3,3.4-0.9c0.2-0.3,0.3-0.7,0.3-1L36,76.8c0.2-1.8,2.1-2.8,3.6-1.9
				L37.2,79.1L37.2,79.1z M40.6,91.9c0.1-1.2-0.4-2.4-1.5-3.1L36.5,93c-0.6-0.3-0.9-1-0.8-1.7L40.6,91.9z"/>
			<defs>
				<filter id="Adobe_OpacityMaskFilter_1_" filterUnits="userSpaceOnUse" x="82.6" y="42.4" width="52.6" height="52.6">
					<feColorMatrix  type="matrix" values="1 0 0 0 0  0 1 0 0 0  0 0 1 0 0  0 0 0 1 0"/>
				</filter>
			</defs>
			<mask maskUnits="userSpaceOnUse" x="82.6" y="42.4" width="52.6" height="52.6" id="B_1_">
				<path class="st11" d="M72.4,32.2h72.8V105H72.4V32.2z"/>
				<path class="st9" d="M88.4,86.3c-6.4-6.4-3.1-20.2,7.4-30.7s24.3-13.9,30.7-7.4l3,3c6.4,6.4,3.1,20.2-7.4,30.7
					s-24.3,13.9-30.7,7.4C91.3,89.2,88.4,86.3,88.4,86.3z"/>
			</mask>
			<path class="st12" d="M126.5,48.1l-1.7,1.7v0L126.5,48.1L126.5,48.1z M129.5,51.1l1.7-1.7L129.5,51.1z M90.1,84.5l0.1,0.1
				l0.1,0.1l0,0.1l0,0l0,0l0-0.1l-0.1-0.1L90.1,84.5L86.6,88l-0.1-0.1l-0.1-0.1l0-0.1l0,0l0,0l0,0.1l0.1,0.1l0.1,0.1L90.1,84.5z
				 M97.5,57.3c-5,5-8.2,10.7-9.4,15.7c-1.2,5.1-0.4,9.1,2,11.5L86.6,88c-4.1-4.1-4.8-10.1-3.3-16.2c1.5-6.1,5.2-12.5,10.7-18.1
				L97.5,57.3L97.5,57.3z M124.8,49.9c-2.4-2.4-6.4-3.2-11.5-2c-5.1,1.2-10.7,4.4-15.7,9.4L94,53.8c5.5-5.5,12-9.3,18.1-10.7
				c6-1.5,12.1-0.7,16.2,3.3L124.8,49.9L124.8,49.9z M124.8,49.9l3.5-3.5c0,0,0,0,0,0L124.8,49.9L124.8,49.9z M127.7,52.8l-3-3
				l3.5-3.5l3,3C131.2,49.3,127.7,52.8,127.7,52.8z M120.3,80.1c5-5,8.2-10.7,9.4-15.7c1.2-5.1,0.4-9.1-2-11.5l3.5-3.5
				c4.1,4.1,4.8,10.1,3.3,16.1c-1.5,6.1-5.2,12.5-10.7,18.1L120.3,80.1L120.3,80.1z M93.1,87.5c2.4,2.4,6.4,3.2,11.5,2
				c5.1-1.2,10.7-4.4,15.7-9.4l3.5,3.5c-5.5,5.5-12,9.3-18.1,10.7c-6,1.5-12.1,0.7-16.2-3.3L93.1,87.5L93.1,87.5z M90.1,84.5l3,3
				L89.6,91l-3-3L90.1,84.5z"/>
			<path class="st13" d="M91.3,89.2c6.4,6.4,20.2,3.1,30.7-7.4s13.9-24.3,7.4-30.7l-3-3L88.4,86.3L91.3,89.2L91.3,89.2z"/>
			<path class="st14" d="M88.4,86.3c6.4,6.4,20.2,3.1,30.7-7.4s13.9-24.3,7.4-30.7s-20.2-3.1-30.7,7.4S81.9,79.8,88.4,86.3z"/>
			<defs>
				<filter id="Adobe_OpacityMaskFilter_2_" filterUnits="userSpaceOnUse" x="145.7" y="8.9" width="52.6" height="52.6">
					<feColorMatrix  type="matrix" values="1 0 0 0 0  0 1 0 0 0  0 0 1 0 0  0 0 0 1 0"/>
				</filter>
			</defs>
			<mask maskUnits="userSpaceOnUse" x="145.7" y="8.9" width="52.6" height="52.6" id="C_1_">
				<path class="st15" d="M135.5-1.1h72.8v72.8h-72.8V-1.1z"/>
				<path class="st9" d="M189.6,55.8L189.6,55.8c-6.5,6.5-20.2,3.2-30.8-7.4s-13.9-24.3-7.4-30.7l0,0l3-3c6.4-6.4,20.2-3.1,30.7,7.4
					s13.9,24.3,7.4,30.7L189.6,55.8L189.6,55.8z"/>
			</mask>
			<path class="st16" d="M189.6,55.8l-1.8-1.7l0,0l0,0L189.6,55.8L189.6,55.8z M151.4,17.7l1.7-1.7l1.7,1.7l-1.7,1.7L151.4,17.7z
				 M151.4,17.7l-1.7,1.7l-1.7-1.7l1.7-1.7L151.4,17.7z M154.4,14.7l-1.7-1.7C152.6,13,154.4,14.7,154.4,14.7z M192.5,52.8l1.7,1.7
				L192.5,52.8z M187.8,54.1L187.8,54.1l3.6,3.4l-0.1,0.1L187.8,54.1L187.8,54.1z M160.6,46.6c5,5,10.7,8.2,15.7,9.4
				c5.1,1.2,9.1,0.4,11.5-2l3.5,3.5c-4.1,4.1-10.1,4.8-16.2,3.3c-6.1-1.5-12.5-5.2-18.1-10.7L160.6,46.6L160.6,46.6z M153.1,19.4
				c-2.4,2.4-3.2,6.4-2,11.5c1.2,5.1,4.4,10.7,9.4,15.7l-3.5,3.5c-5.5-5.5-9.3-12-10.7-18.1c-1.5-6-0.7-12.1,3.3-16.1L153.1,19.4
				L153.1,19.4z M153.1,15.9L153.1,15.9l-3.5,3.5L153.1,15.9z M156.1,16.4l-3,3l-3.5-3.5l3-3C152.6,12.9,156.1,16.4,156.1,16.4z
				 M183.3,23.9c-5-5-10.7-8.2-15.7-9.4c-5.1-1.2-9.1-0.4-11.5,2l-3.5-3.5c4.1-4.1,10.1-4.8,16.2-3.3c6.1,1.5,12.5,5.2,18.1,10.7
				L183.3,23.9L183.3,23.9z M190.8,51.1c2.4-2.4,3.2-6.4,2-11.5c-1.2-5.1-4.4-10.7-9.4-15.7l3.5-3.5c5.5,5.5,9.3,12,10.7,18.1
				c1.5,6,0.7,12.1-3.3,16.2L190.8,51.1L190.8,51.1z M187.9,54l2.9-2.9l3.5,3.5l-2.9,2.9L187.9,54z"/>
			<path class="st14" d="M192.5,52.8c6.4-6.4,3.1-20.2-7.4-30.7s-24.3-13.9-30.7-7.4l-3,3l38.1,38.1L192.5,52.8z"/>
			<path class="st13" d="M189.5,55.8c6.4-6.4,3.1-20.2-7.4-30.7s-24.3-13.9-30.7-7.4s-3.1,20.2,7.4,30.7S183.1,62.2,189.5,55.8
				L189.5,55.8z"/>
			<g>
				<path class="st17" d="M48.8,22.1c-0.2-1-1.7-1-1.8,0L46,28.3c-0.1,0.4-0.4,0.7-0.8,0.8L39,30c-1,0.2-1,1.7,0,1.8l6.2,0.9
					c0.4,0.1,0.7,0.4,0.8,0.8l0.9,6.2c0.2,1,1.7,1,1.8,0l0.9-6.2c0.1-0.4,0.4-0.7,0.8-0.8l6.2-0.9c1-0.2,1-1.7,0-1.8l-6.2-0.9
					c-0.4-0.1-0.7-0.4-0.8-0.8C49.7,28.3,48.8,22.1,48.8,22.1z M183.4,85.6c-0.2-1-1.7-1-1.8,0l-0.9,6.2c-0.1,0.4-0.4,0.7-0.8,0.8
					l-6.2,0.9c-1,0.2-1,1.7,0,1.8l6.2,0.9c0.4,0.1,0.7,0.4,0.8,0.8l0.9,6.2c0.2,1,1.7,1,1.8,0l0.9-6.2c0.1-0.4,0.4-0.7,0.8-0.8
					l6.2-0.9c1-0.2,1-1.7,0-1.8l-6.2-0.9c-0.4-0.1-0.7-0.4-0.8-0.8L183.4,85.6L183.4,85.6z M86,7.3c0.2-1,1.7-1,1.8,0l0.3,2
					c0.1,0.4,0.4,0.7,0.8,0.8l2,0.3c1,0.2,1,1.7,0,1.8l-2,0.3c-0.4,0.1-0.7,0.4-0.8,0.8l-0.3,2c-0.2,1-1.7,1-1.8,0l-0.3-2
					c-0.1-0.4-0.4-0.7-0.8-0.8l-2-0.3c-1-0.2-1-1.7,0-1.8l2-0.3c0.4-0.1,0.7-0.4,0.8-0.8C85.7,9.3,86,7.3,86,7.3z"/>
			</g>
		</g>
	</g>
</g>
<g id="Layer_2">
	<path class="st18" d="M77.9,113.2l0.4,1.9c0,0,20.2,4.8,34.3,0l0.5-1.7C113.2,113.4,99.5,117.9,77.9,113.2z"/>
	<path class="st19" d="M74.9,63.5l2.5,49.4c0,0,19.5,5,36.3,0l3.9-48.2L74.9,63.5z"/>
	
		<ellipse transform="matrix(2.253052e-02 -0.9997 0.9997 2.253052e-02 30.3302 158.3676)" class="st20" cx="96.2" cy="63.7" rx="4.3" ry="21.4"/>
	<path class="st20" d="M100.9,47.6l-6.5,20.3c0,0,2.1,0.2,4.3,0.1l6.4-19.7C105.1,48.3,103.1,47,100.9,47.6z"/>
	<ellipse class="st21" cx="96.6" cy="45.5" rx="23.1" ry="5.2"/>
	<ellipse class="st22" cx="96.6" cy="45.6" rx="20.6" ry="4"/>
	<path class="st20" d="M113,10.7l-12,35.9c0,0,1.1,0.2,4.4-0.1l11.7-35.1C117.1,11.4,115.1,10.1,113,10.7z"/>
	<path class="st20" d="M112.4,11.6c0,0,2.6,1.2,4.4,0.8"/>
	<path class="st23" d="M74,46.6l0.8,15.6l2.6,50.7c0,0,0.8,0.8,0.7,1.9c-0.1,1.1,11.6,2.6,18,2.5c6.3-0.1,16.6-1.1,16.8-2.6
		c0.3-1.6,1-1.8,1-1.8l5.3-66.3"/>
	<path class="st23" d="M117.4,118.4"/>
	<path class="st23" d="M77.4,112.9c0,0,18.6,5.3,36.5,0.1"/>
	<polyline class="st24" points="83.1,77.7 88.2,81.4 82.6,83.6 	"/>
	<polyline class="st24" points="109.8,85 104.5,81.6 109.9,79.1 	"/>
	<circle class="st25" cx="84.6" cy="107.7" r="1.8"/>
	<circle class="st25" cx="88.5" cy="105.1" r="1.8"/>
	<circle class="st25" cx="88.9" cy="109.4" r="1.8"/>
	<circle class="st25" cx="92.5" cy="106.9" r="1.8"/>
	<circle class="st25" cx="93.8" cy="111.2" r="1.8"/>
	<circle class="st25" cx="97.7" cy="108.6" r="1.8"/>
	<circle class="st25" cx="98.2" cy="113" r="1.8"/>
	<circle class="st25" cx="101.7" cy="110.4" r="1.8"/>
	<circle class="st25" cx="102.3" cy="106.3" r="1.8"/>
	<circle class="st25" cx="106.2" cy="103.7" r="1.8"/>
	<circle class="st25" cx="106.6" cy="108.1" r="1.8"/>
	<circle class="st25" cx="109.9" cy="105" r="1.8"/>
	<circle class="st25" cx="105.8" cy="112.2" r="1.8"/>
	<circle class="st25" cx="110.9" cy="109.8" r="1.8"/>
	<circle class="st25" cx="79.7" cy="101.2" r="1.8"/>
	<circle class="st25" cx="80.1" cy="105.5" r="1.8"/>
	<circle class="st25" cx="83.7" cy="102.9" r="1.8"/>
	<circle class="st25" cx="91.7" cy="102.5" r="1.8"/>
	<circle class="st25" cx="96.1" cy="104.3" r="1.8"/>
	<circle class="st25" cx="100.5" cy="102.5" r="1.8"/>
	<circle class="st25" cx="112.3" cy="101.6" r="1.8"/>
	<circle class="st25" cx="90.3" cy="113" r="1.8"/>
	<circle class="st25" cx="79.7" cy="110" r="1.8"/>
	<circle class="st25" cx="83.7" cy="111.8" r="1.8"/>
	<text transform="matrix(1.0073 0.2026 -0.1972 0.9804 93.5422 92.9786)" class="st26 st27 st28">~</text>
	<path class="st20" d="M121.7,69.1"/>
</g>
</svg>
